<?xml version="1.0" encoding="UTF-8" standalone="no"?>
<!-- Created with Inkscape (http://www.inkscape.org/) -->

<svg
   xmlns:dc="http://purl.org/dc/elements/1.1/"
   xmlns:cc="http://creativecommons.org/ns#"
   xmlns:rdf="http://www.w3.org/1999/02/22-rdf-syntax-ns#"
   xmlns:svg="http://www.w3.org/2000/svg"
   xmlns="http://www.w3.org/2000/svg"
   xmlns:sodipodi="http://sodipodi.sourceforge.net/DTD/sodipodi-0.dtd"
   xmlns:inkscape="http://www.inkscape.org/namespaces/inkscape"
   width="38.240002"
   height="125.67062"
   id="svg2"
   version="1.1"
   inkscape:version="0.48.2 r9819"
   inkscape:export-filename="/home/shunsuke/test.png"
   inkscape:export-xdpi="90"
   inkscape:export-ydpi="90"
   sodipodi:docname="grafi.jp-white.svg">
  <defs
     id="defs4" />
  <sodipodi:namedview
     id="base"
     pagecolor="#ffffff"
     bordercolor="#666666"
     borderopacity="1.0"
     inkscape:pageopacity="0"
     inkscape:pageshadow="2"
     inkscape:zoom="0.98994949"
     inkscape:cx="-274.04293"
     inkscape:cy="-102.84729"
     inkscape:document-units="px"
     inkscape:current-layer="layer1"
     showgrid="false"
     fit-margin-top="0"
     fit-margin-left="0"
     fit-margin-right="0"
     fit-margin-bottom="0"
     inkscape:window-width="958"
     inkscape:window-height="1054"
     inkscape:window-x="0"
     inkscape:window-y="24"
     inkscape:window-maximized="0" />
  <metadata
     id="metadata7">
    <rdf:RDF>
      <cc:Work
         rdf:about="">
        <dc:format>image/svg+xml</dc:format>
        <dc:type
           rdf:resource="http://purl.org/dc/dcmitype/StillImage" />
        <dc:title></dc:title>
      </cc:Work>
    </rdf:RDF>
  </metadata>
  <g
     inkscape:label="レイヤー 1"
     inkscape:groupmode="layer"
     id="layer1"
     transform="translate(-172.67644,-265.51855)">
    <g
       transform="matrix(0,-1,1,0,-136.55743,520.15031)"
       style="font-size:40px;font-style:normal;font-variant:normal;font-weight:normal;font-stretch:normal;line-height:125%;letter-spacing:1px;word-spacing:0px;fill:#ffffff;fill-opacity:1;stroke:none;font-family:Cantarell;-inkscape-font-specification:Cantarell"
       id="flowRoot2985">
      <path
         d="m 134.48113,317.95387 c -1.32,0.56 -2.4,1.36 -3.28,2.4 -1.72,2 -2.48,4.88 -2.24,8.56 0.12,1.84 0.64,3.44 1.56,4.76 0.92,1.32 2,2.28 3.32,2.88 1.32,0.6 2.68,0.84 4.24,0.76 1.56,-0.08 3.08,-0.48 4.56,-1.28 l 0,0.56 c 0,1.24 0,2.12 -0.08,2.68 -0.28,2.48 -1.44,4.16 -3.52,5 -2.16,0.88 -4.72,0.8 -7.76,-0.32 l -0.88,2.32 c 0.52,0.24 1.04,0.4 1.56,0.56 2.68,0.84 5.16,0.92 7.48,0.28 1.56,-0.4 2.84,-1.08 3.84,-2.04 1,-0.96 1.68,-2 2.04,-3.08 0.36,-1.08 0.52,-2.48 0.52,-4.12 l 0,-20.2 -2.24,0 -0.4,1.12 -0.92,-0.4 c -2.84,-1.28 -5.4,-1.44 -7.8,-0.44 m 8.16,15.68 c -1.08,0.6 -2.28,0.92 -3.6,1.04 -1.32,0.12 -2.52,-0.08 -3.6,-0.68 -1.08,-0.6 -1.92,-1.44 -2.48,-2.6 -0.84,-1.68 -1.12,-3.6 -0.84,-5.76 0.28,-2.2 1.2,-3.76 2.72,-4.76 1.88,-1.24 4.48,-1.28 7.8,0.08 l 0,12.68"
         style=""
         id="path2987" />
      <path
         d="m 155.03988,317.71387 -2.4,0 0,19.24 3.32,0 0,-15.32 c 1.4,-0.92 2.84,-1.4 4.4,-1.4 0.96,0 1.92,0.24 2.92,0.64 l 0.4,0 0,-3.16 c -0.84,-0.24 -1.72,-0.36 -2.64,-0.36 -1.88,0 -3.64,0.64 -5.36,1.96 l -0.64,-1.6"
         style=""
         id="path2989" />
      <path
         d="m 168.66488,318.59387 0,2.6 c 0.6,-0.2 1.24,-0.32 1.88,-0.48 4.92,-1.12 7.8,-0.56 8.64,1.72 0.24,0.64 0.36,1.6 0.36,3 l 0,0.16 c -2.96,0.08 -5.36,0.36 -7.28,0.84 -1.32,0.36 -2.44,1 -3.36,1.96 -0.88,0.96 -1.36,2.2 -1.36,3.76 0,1.56 0.64,2.84 1.92,3.88 1,0.8 2.2,1.28 3.64,1.36 2.4,0.16 4.6,-0.6 6.56,-2.24 l 0.72,1.8 2.44,0 0,-12.52 c 0,-1.4 -0.16,-2.6 -0.52,-3.52 -0.36,-0.92 -1.08,-1.72 -2.16,-2.44 -1.08,-0.72 -2.76,-1.08 -5,-1.08 -2.24,0 -4.4,0.4 -6.48,1.2 m 10.88,14 c -1.16,1.12 -2.48,1.84 -4.04,2.12 -1.04,0.2 -1.92,0.2 -2.6,-0.12 -0.68,-0.32 -1.2,-0.68 -1.52,-1.16 -0.72,-1 -0.8,-2.04 -0.16,-3.08 0.64,-1.04 1.72,-1.68 3.2,-2 0.8,-0.16 2.48,-0.28 5.12,-0.36 l 0,4.6"
         style=""
         id="path2991" />
      <path
         d="m 198.79426,309.23387 c -3.92,-0.64 -6.60001,0.32 -8.04,2.84 -0.4,0.72 -0.6,1.96 -0.6,3.64 l 0,1.96 -2.8,0 0,2.52 2.8,0 0.04,16.76 3.24,0 -0.04,-16.76 6.44,0 0,-2.52 -6.44,0 0,-1.84 c 0,-0.52 0.04,-0.96 0.08,-1.24 0.2,-1.28 1.08,-2.16 2.6,-2.68 1.07999,-0.36 2.6,-0.28 4.64,0.28 l 0.52,-2.4 c -0.8,-0.24 -1.60001,-0.44 -2.44,-0.56"
         style=""
         id="path2993" />
      <path
         d="m 204.59801,317.63387 0,19.32 3.28,0 0,-19.32 -3.28,0 m 0,-7.44 0,3.32 3.28,0 0,-3.32 -3.28,0"
         style=""
         id="path2995" />
      <path
         d="m 214.76488,332.83387 0,4.12 4.08,0 0,-4.12 -4.08,0"
         style=""
         id="path2997" />
      <path
         d="m 229.93863,339.51387 -0.08,-21.84 -3.2,0 0.04,22 0,0.12 c 0.08,2.48 -0.96,4.2 -3.16,5.24 l 1.2,2.44 c 1.32,-0.48 2.44,-1.16 3.32,-2.04 0.36,-0.36 0.68,-0.8 0.92,-1.28 0.24,-0.48 0.48,-1 0.68,-1.52 0.2,-0.52 0.28,-1.56 0.28,-3.12 m -3.32,-29.32 0,3.32 3.28,0 0,-3.32 -3.28,0"
         style=""
         id="path2999" />
      <path
         d="m 240.59176,333.95387 0,-12.72 c 0.71999,-0.4 1.4,-0.68 2.04,-0.88 0.64,-0.2 1.4,-0.32 2.32,-0.32 1.99999,0 3.56,0.64 4.64,1.96 1.07999,1.32 1.64,3.12 1.64,5.4 0,2.28 -0.56001,4.08 -1.68,5.44 -1.12,1.36 -2.68001,2.04 -4.64,2.04 -1.48,0 -2.92001,-0.32 -4.32,-0.92 m 0,2.56 c 1.51999,0.64 3.08,0.96 4.64,0.96 2.63999,0 4.84,-0.92 6.6,-2.64 1.83999,-1.8 2.8,-4.4 2.8,-7.72 0,-4 -1.40001,-6.8 -4.08,-8.52 -1.36,-0.84 -2.96001,-1.28 -4.88,-1.28 -1.92,0 -3.72001,0.6 -5.44,1.72 l -0.6,-1.32 -2.36,0 0,29.68 3.32,0 0,-10.88"
         style=""
         id="path3001" />
    </g>
  </g>
</svg>
